<svg width="280" height="280" viewBox="0 0 280 280" fill="none" xmlns="http://www.w3.org/2000/svg">
<circle cx="140" cy="140" r="140" fill="#D9D9D9"/>
<line x1="140.5" x2="140.5" y2="280" stroke="black"/>
<line y1="139.5" x2="280" y2="139.5" stroke="black"/>
<line x1="41.4716" y1="40.7645" x2="240.213" y2="238.527" stroke="black"/>
<line x1="243.135" y1="45.4039" x2="36.5613" y2="234.355" stroke="black"/>
<path d="M106.225 76.1223C121.236 50.1223 158.764 50.1224 173.775 76.1224L212.207 142.689C227.218 168.689 208.454 201.189 178.432 201.189H101.568C71.5457 201.189 52.7818 168.689 67.7929 142.689L106.225 76.1223Z" fill="#006383"/>
<path d="M173.775 203.878C158.764 229.878 121.236 229.878 106.225 203.878L67.7929 137.311C52.7818 111.311 71.5457 78.8112 101.568 78.8112L178.432 78.8112C208.454 78.8112 227.218 111.311 212.207 137.311L173.775 203.878Z" fill="#006383"/>
<path d="M113.53 92.972C125.077 72.972 153.944 72.972 165.491 92.972L192.804 140.28C204.351 160.28 189.918 185.28 166.824 185.28H112.197C89.1034 185.28 74.6696 160.28 86.2166 140.28L113.53 92.972Z" fill="#FFC4EE"/>
<path d="M165.491 186.049C153.944 206.049 125.077 206.049 113.53 186.049L86.2166 138.741C74.6696 118.741 89.1034 93.7412 112.197 93.7412L166.824 93.7412C189.918 93.7412 204.351 118.741 192.804 138.741L165.491 186.049Z" fill="#FFC4EE"/>
<path d="M156.831 168.741C149.133 182.075 129.888 182.075 122.19 168.741L106.383 141.364C98.6855 128.03 108.308 111.364 123.704 111.364L155.317 111.364C170.713 111.364 180.335 128.03 172.637 141.364L156.831 168.741Z" fill="#FFECFA"/>
<path d="M122.19 112.238C129.888 98.9044 149.133 98.9044 156.831 112.238L172.638 139.615C180.336 152.949 170.713 169.615 155.317 169.615H123.704C108.308 169.615 98.6855 152.949 106.384 139.615L122.19 112.238Z" fill="#FFECFA"/>
<path d="M138.462 115.418C139.261 114.455 140.739 114.455 141.538 115.418L145.944 120.721C146.405 121.276 147.129 121.539 147.839 121.41L154.623 120.18C155.854 119.957 156.986 120.907 156.979 122.158L156.946 129.052C156.942 129.773 157.328 130.441 157.954 130.799L163.941 134.216C165.028 134.837 165.285 136.292 164.476 137.246L160.019 142.506C159.552 143.056 159.418 143.815 159.668 144.492L162.058 150.959C162.492 152.133 161.753 153.412 160.519 153.623L153.724 154.787C153.013 154.909 152.423 155.405 152.179 156.084L149.853 162.573C149.431 163.751 148.043 164.257 146.962 163.626L141.008 160.15C140.385 159.786 139.615 159.786 138.992 160.15L133.038 163.626C131.957 164.257 130.569 163.751 130.147 162.573L127.821 156.084C127.577 155.405 126.987 154.909 126.276 154.787L119.48 153.623C118.247 153.412 117.508 152.133 117.942 150.959L120.332 144.492C120.582 143.815 120.448 143.056 119.981 142.506L115.524 137.246C114.715 136.292 114.972 134.837 116.059 134.216L122.046 130.799C122.672 130.441 123.058 129.773 123.054 129.052L123.021 122.158C123.014 120.907 124.146 119.957 125.377 120.18L132.161 121.41C132.871 121.539 133.595 121.276 134.056 120.721L138.462 115.418Z" fill="#FFA3A3"/>
<path d="M137.913 120.581C138.713 119.519 140.308 119.519 141.108 120.581L143.586 123.87C144.048 124.483 144.821 124.778 145.575 124.627L149.379 123.867C150.62 123.618 151.777 124.571 151.771 125.837L151.75 130.612C151.747 131.303 152.1 131.946 152.685 132.314L156.453 134.685C157.45 135.313 157.691 136.663 156.973 137.597L154.072 141.371C153.666 141.899 153.55 142.594 153.762 143.225L155.315 147.86C155.7 149.01 154.981 150.236 153.79 150.461L149.756 151.223C149.038 151.358 148.451 151.875 148.225 152.57L146.842 156.822C146.437 158.069 144.961 158.595 143.858 157.885L140.593 155.784C139.934 155.359 139.087 155.359 138.428 155.784L135.163 157.885C134.06 158.595 132.584 158.069 132.179 156.822L130.796 152.57C130.57 151.875 129.983 151.358 129.265 151.223L125.231 150.461C124.039 150.236 123.321 149.01 123.706 147.86L125.259 143.225C125.471 142.594 125.354 141.899 124.949 141.371L122.048 137.597C121.33 136.663 121.571 135.313 122.568 134.685L126.336 132.314C126.921 131.946 127.274 131.303 127.271 130.612L127.25 125.837C127.244 124.571 128.401 123.618 129.642 123.867L133.446 124.627C134.199 124.778 134.973 124.483 135.435 123.87L137.913 120.581Z" fill="#FF7777"/>
</svg>
